<svg width="40" height="40" viewBox="0 0 40 40" fill="none" xmlns="http://www.w3.org/2000/svg">
<rect width="40" height="40" rx="4" transform="matrix(-1 0 0 1 40 0)" fill="#F5F5F5"/>
<rect x="-0.5" y="0.5" width="39" height="39" rx="3.5" transform="matrix(-1 0 0 1 39 0)" stroke="#1B1F23" stroke-opacity="0.1"/>
<path d="M21.0982 15.1823L25.8125 19.5573C25.9375 19.6788 26 19.8264 26 20C26 20.1736 25.9375 20.3212 25.8125 20.4427L21.0982 24.8177C20.7768 25.0608 20.4732 25.0608 20.1875 24.8177C19.9375 24.5052 19.9375 24.2101 20.1875 23.9323L23.75 20.625H14.6429C14.25 20.5903 14.0357 20.3819 14 20C14.0357 19.6181 14.25 19.4097 14.6429 19.375H23.75L20.1875 16.0677C19.9375 15.7899 19.9375 15.4948 20.1875 15.1823C20.4732 14.9392 20.7768 14.9392 21.0982 15.1823Z" fill="#1B1F23"/>
</svg>
