<svg width="40" height="40" viewBox="0 0 40 40" fill="none" xmlns="http://www.w3.org/2000/svg">
<rect width="40" height="40" rx="4" fill="#F5F5F5"/>
<rect x="0.5" y="0.5" width="39" height="39" rx="3.5" stroke="#1B1F23" stroke-opacity="0.1"/>
<path d="M18.9018 15.1823L14.1875 19.5573C14.0625 19.6788 14 19.8264 14 20C14 20.1736 14.0625 20.3212 14.1875 20.4427L18.9018 24.8177C19.2232 25.0608 19.5268 25.0608 19.8125 24.8177C20.0625 24.5052 20.0625 24.2101 19.8125 23.9323L16.25 20.625H25.3571C25.75 20.5903 25.9643 20.3819 26 20C25.9643 19.6181 25.75 19.4097 25.3571 19.375H16.25L19.8125 16.0677C20.0625 15.7899 20.0625 15.4948 19.8125 15.1823C19.5268 14.9392 19.2232 14.9392 18.9018 15.1823Z" fill="#1B1F23"/>
</svg>
